<svg aria-hidden="true" style="position: absolute; width: 0; height: 0; overflow: hidden;" version="1.1" xmlns="http://www.w3.org/2000/svg" xmlns:xlink="http://www.w3.org/1999/xlink">
<defs>
<symbol id="icon-arrow_back" viewBox="0 0 24 24">
<title>arrow_back</title>
<path d="M20.016 11.016v1.969h-12.188l5.578 5.625-1.406 1.406-8.016-8.016 8.016-8.016 1.406 1.406-5.578 5.625h12.188z"></path>
</symbol>
<symbol id="icon-arrow_forward" viewBox="0 0 24 24">
<title>arrow_forward</title>
<path d="M12 3.984l8.016 8.016-8.016 8.016-1.406-1.406 5.578-5.625h-12.188v-1.969h12.188l-5.578-5.625z"></path>
</symbol>
<symbol id="icon-info" viewBox="0 0 24 24">
<title>info</title>
<path d="M12.984 9v-2.016h-1.969v2.016h1.969zM12.984 17.016v-6h-1.969v6h1.969zM12 2.016c5.531 0 9.984 4.453 9.984 9.984s-4.453 9.984-9.984 9.984-9.984-4.453-9.984-9.984 4.453-9.984 9.984-9.984z"></path>
</symbol>
<symbol id="icon-sort" viewBox="0 0 24 24">
<title>sort</title>
<path d="M3 12.984v-1.969h12v1.969h-12zM3 6h18v2.016h-18v-2.016zM3 18v-2.016h6v2.016h-6z"></path>
</symbol>
<symbol id="icon-widgets" viewBox="0 0 24 24">
<title>widgets</title>
<path d="M16.641 1.688l5.672 5.672-5.672 5.625h4.359v8.016h-8.016v-8.016h3.656l-5.625-5.625v3.656h-8.016v-8.016h8.016v4.359zM3 21v-8.016h8.016v8.016h-8.016z"></path>
</symbol>
<symbol id="icon-align-right" viewBox="0 0 24 24">
<title>align-right</title>
<path d="M21 9h-14c-0.6 0-1 0.4-1 1s0.4 1 1 1h14c0.6 0 1-0.4 1-1s-0.4-1-1-1z"></path>
<path d="M3 7h18c0.6 0 1-0.4 1-1s-0.4-1-1-1h-18c-0.6 0-1 0.4-1 1s0.4 1 1 1z"></path>
<path d="M21 13h-18c-0.6 0-1 0.4-1 1s0.4 1 1 1h18c0.6 0 1-0.4 1-1s-0.4-1-1-1z"></path>
<path d="M21 17h-14c-0.6 0-1 0.4-1 1s0.4 1 1 1h14c0.6 0 1-0.4 1-1s-0.4-1-1-1z"></path>
</symbol>
<symbol id="icon-facebook" viewBox="0 0 24 24">
<title>facebook</title>
<path d="M18 7c0.6 0 1-0.4 1-1v-4c0-0.6-0.4-1-1-1h-3c-3.3 0-6 2.7-6 6v2h-2c-0.6 0-1 0.4-1 1v4c0 0.6 0.4 1 1 1h2v7c0 0.6 0.4 1 1 1h4c0.6 0 1-0.4 1-1v-7h2c0.5 0 0.9-0.3 1-0.8l1-4c0.1-0.3 0-0.6-0.2-0.9s-0.5-0.3-0.8-0.3h-3v-2h3zM14 11h2.7l-0.5 2h-2.2c-0.6 0-1 0.4-1 1v7h-2v-7c0-0.6-0.4-1-1-1h-2v-2h2c0.6 0 1-0.4 1-1v-3c0-2.2 1.8-4 4-4h2v2h-2c-1.1 0-2 0.9-2 2v3c0 0.6 0.4 1 1 1z"></path>
</symbol>
<symbol id="icon-instagram" viewBox="0 0 24 24">
<title>instagram</title>
<path d="M17 1h-10c-3.3 0-6 2.7-6 6v10c0 3.3 2.7 6 6 6h10c3.3 0 6-2.7 6-6v-10c0-3.3-2.7-6-6-6zM21 17c0 2.2-1.8 4-4 4h-10c-2.2 0-4-1.8-4-4v-10c0-2.2 1.8-4 4-4h10c2.2 0 4 1.8 4 4v10z"></path>
<path d="M12.8 7c-0.5-0.1-1-0.1-1.5 0-2.7 0.4-4.6 3-4.2 5.7 0.2 1.3 0.9 2.5 2 3.3 0.9 0.6 1.9 1 3 1 0.2 0 0.5 0 0.7-0.1 1.3-0.2 2.5-0.9 3.3-2s1.1-2.4 0.9-3.7c-0.3-2.2-2-3.9-4.2-4.2zM14.5 13.7c-0.5 0.6-1.2 1.1-2 1.2-1.6 0.2-3.2-0.9-3.4-2.5-0.3-1.6 0.9-3.2 2.5-3.4 0.1 0 0.3 0 0.4 0s0.3 0 0.4 0c1.3 0.2 2.3 1.2 2.5 2.5 0.2 0.8 0 1.6-0.4 2.2z"></path>
<path d="M16.8 5.8c-0.2 0.2-0.3 0.4-0.3 0.7s0.1 0.5 0.3 0.7c0.2 0.2 0.5 0.3 0.7 0.3 0.3 0 0.5-0.1 0.7-0.3s0.3-0.5 0.3-0.7c0-0.3-0.1-0.5-0.3-0.7-0.4-0.4-1-0.4-1.4 0z"></path>
</symbol>
<symbol id="icon-twitter" viewBox="0 0 24 24">
<title>twitter</title>
<path d="M23.6 2.2c-0.3-0.2-0.8-0.2-1.1 0-0.7 0.5-1.5 0.9-2.3 1.2-2-1.8-5.1-1.9-7.2-0.1-1.3 1.1-2 2.6-2 4.2-2.9-0.2-5.5-1.7-7.2-4.1-0.2-0.3-0.5-0.4-0.9-0.4s-0.7 0.3-0.8 0.6c-0.1 0.1-1.1 2.5-1 5.4 0.1 2.5 1.1 5.7 4.8 8-1.5 0.7-3.2 1-4.9 1-0.4 0-0.9 0.3-1 0.7s0.1 0.9 0.5 1.1c2.5 1.4 5.2 2.1 7.7 2.1s4.9-0.6 7.1-1.9c4.3-2.4 6.7-7 6.7-12.5 0-0.2 0-0.3 0-0.5 1-1.1 1.7-2.4 2-3.8 0.1-0.4-0.1-0.8-0.4-1zM20.2 6c-0.2 0.2-0.3 0.6-0.3 0.9 0.1 0.2 0.1 0.4 0.1 0.6 0 4.8-2.1 8.7-5.7 10.8-2.8 1.6-6.1 2-9.4 1.2 1.3-0.4 2.5-0.9 3.6-1.7 0.4-0.2 0.5-0.5 0.5-0.9s-0.3-0.7-0.6-0.8c-5.8-2.6-5.6-7.5-5-10 2.2 2.2 5.3 3.5 8.6 3.4 0.5 0 1-0.5 1-1v-1c0-1 0.4-2 1.2-2.7 1.4-1.3 3.7-1.1 4.9 0.3 0.3 0.3 0.7 0.4 1 0.3 0.2-0.1 0.5-0.1 0.7-0.2-0.2 0.3-0.4 0.5-0.6 0.8z"></path>
</symbol>
<symbol id="icon-see-tickets" viewBox="0 0 32 32">
<title>see-tickets</title>
<path d="M24.225 15.779c-0.235-0.353-0.647-0.531-1.175-0.531-0.704 0-1.673 0.561-1.673 1.771 0 0.117 0 0.265 0.031 0.413l2.817-1.653zM23.227 21c-1.879 0-3.639-1.447-3.639-3.659 0-2.065 1.409-3.745 3.581-3.745 1.789 0 3.139 1.504 3.139 2.655l-4.255 2.508c0.352 0.412 0.939 0.531 1.497 0.531 0.527 0 1.379-0.267 2.467-1.061l-0.383 2.067c-0.675 0.471-1.556 0.708-2.405 0.708v0zM17.064 15.779c-0.235-0.353-0.647-0.531-1.173-0.531-0.704 0-1.673 0.561-1.673 1.771 0 0.117 0 0.265 0.029 0.413l2.819-1.653zM16.067 21c-1.879 0-3.639-1.447-3.639-3.659 0-2.065 1.408-3.745 3.579-3.745 1.789 0 3.139 1.504 3.139 2.655l-4.255 2.508c0.353 0.412 0.939 0.531 1.497 0.531 0.528 0 1.38-0.267 2.465-1.061l-0.383 2.067c-0.675 0.471-1.555 0.708-2.407 0.708v0zM5.591 18.257c0.881 0.679 1.703 1.003 2.495 1.003 1.173 0 1.615-0.501 1.615-1.121 0-0.441-0.263-0.825-1.379-1.593-0.911-0.619-1.849-1.535-1.849-2.773 0-1.444 1.027-2.772 3.287-2.772 0.88 0 1.996 0.324 2.817 0.827l-0.411 1.709c-0.793-0.561-1.615-0.797-2.289-0.797-0.851 0-1.379 0.296-1.379 0.944 0 0.472 0.411 0.855 1.379 1.504 1.201 0.856 1.907 1.681 1.907 2.832 0 1.623-1.32 2.981-3.521 2.981-1.233 0-2.289-0.355-3.081-0.944l0.411-1.799z"></path>
</symbol>
<symbol id="icon-57-festivals" viewBox="0 0 32 32">
<title>57-festivals</title>
<path d="M11.743 14.239c0-1.047-0.371-1.94-1.111-2.68s-1.635-1.111-2.681-1.111c0-0.493 0-0.928 0-1.305 0-0.388 0-0.717 0-0.987 0-0.224 0-0.416 0-0.583 0-0.164 0-0.305 0-0.423 0-0.481 0-0.757 0-0.829s0-0.376 0-0.917c0.999 0 2.491 0 4.479 0 0 0.152 0 0.388 0 0.705-0.835 0-2.092 0-3.772 0 0 0.823 0 2.057 0 3.703 1.069 0.165 1.963 0.665 2.68 1.497 0.729 0.835 1.093 1.811 1.093 2.927 0 0.436-0.060 0.852-0.176 1.251-0.117 0.399-0.281 0.769-0.493 1.111-0.4 0.636-0.935 1.147-1.604 1.535-0.671 0.388-1.405 0.583-2.205 0.583v-0.705c1.047 0 1.94-0.364 2.68-1.093 0.741-0.74 1.112-1.633 1.112-2.68z"></path>
<path d="M23.325 11.137c-1.293 2.645-3.227 6.617-5.8 11.917-0.176 0-0.436 0-0.775 0 1.352-2.809 3.391-7.017 6.117-12.623-1.528 0-3.832 0-6.911 0 0-0.152 0-0.381 0-0.688 1.445 0 3.608 0 6.487 0 0.353 0 0.869 0 1.552 0-0.152 0.307-0.376 0.771-0.669 1.393z"></path>
<path d="M8.004 24.419h1.163v0.227h-0.909v0.731h0.849v0.227h-0.849v0.955h-0.253v-2.139z"></path>
<path d="M9.889 24.419h1.163v0.227h-0.909v0.7h0.833v0.227h-0.833v0.76h0.924v0.227h-1.179v-2.14z"></path>
<path d="M12.796 26.013c0-0.085-0.027-0.156-0.077-0.209s-0.115-0.101-0.191-0.144c-0.077-0.043-0.16-0.081-0.248-0.117-0.091-0.036-0.173-0.081-0.248-0.133-0.077-0.052-0.14-0.116-0.191-0.193s-0.077-0.175-0.077-0.292c0-0.167 0.059-0.299 0.175-0.396s0.281-0.147 0.495-0.147c0.125 0 0.236 0.009 0.339 0.028s0.181 0.043 0.239 0.069l-0.077 0.227c-0.047-0.023-0.116-0.045-0.207-0.067-0.091-0.020-0.193-0.032-0.307-0.032-0.135 0-0.235 0.031-0.301 0.091s-0.1 0.131-0.1 0.212c0 0.080 0.027 0.145 0.077 0.199 0.051 0.052 0.115 0.1 0.191 0.143s0.16 0.083 0.248 0.124c0.089 0.040 0.173 0.088 0.248 0.143 0.077 0.053 0.14 0.119 0.191 0.195s0.077 0.168 0.077 0.281c0 0.092-0.016 0.175-0.049 0.247s-0.080 0.136-0.144 0.189c-0.063 0.052-0.14 0.095-0.229 0.121-0.091 0.029-0.192 0.043-0.305 0.043-0.152 0-0.279-0.012-0.379-0.035s-0.177-0.049-0.232-0.079l0.085-0.227c0.047 0.027 0.116 0.051 0.208 0.076s0.195 0.037 0.308 0.037c0.067 0 0.131-0.007 0.189-0.020 0.060-0.013 0.111-0.035 0.152-0.064s0.077-0.067 0.101-0.112c0.028-0.040 0.040-0.095 0.040-0.156z"></path>
<path d="M15.137 24.645h-0.665v1.912h-0.253v-1.912h-0.665v-0.227h1.585v0.227z"></path>
<path d="M15.816 24.419h0.255v2.139h-0.255v-2.139z"></path>
<path d="M17.508 25.888l0.075 0.324h0.003l0.080-0.329 0.513-1.463h0.255l-0.808 2.172h-0.113l-0.824-2.172h0.277l0.544 1.469z"></path>
<path d="M19.869 25.964h-0.784l-0.213 0.592h-0.255l0.808-2.172h0.116l0.813 2.172h-0.268l-0.217-0.592zM19.168 25.744h0.625l-0.236-0.651-0.076-0.324h-0.003l-0.076 0.329-0.235 0.644z"></path>
<path d="M22.209 26.556h-1.264v-2.137h0.255v1.912h1.011v0.225z"></path>
<path d="M23.795 26.013c0-0.085-0.027-0.156-0.077-0.209s-0.115-0.101-0.191-0.144c-0.077-0.043-0.16-0.081-0.248-0.117s-0.173-0.081-0.248-0.133c-0.077-0.052-0.14-0.116-0.191-0.193s-0.077-0.175-0.077-0.292c0-0.167 0.059-0.299 0.175-0.396s0.281-0.147 0.495-0.147c0.125 0 0.236 0.009 0.34 0.028 0.101 0.019 0.181 0.043 0.239 0.069l-0.077 0.227c-0.047-0.023-0.116-0.045-0.207-0.067-0.089-0.020-0.193-0.032-0.307-0.032-0.135 0-0.235 0.031-0.301 0.091s-0.1 0.131-0.1 0.212c0 0.080 0.027 0.145 0.077 0.199 0.051 0.052 0.115 0.1 0.191 0.143 0.077 0.043 0.16 0.083 0.248 0.124 0.089 0.040 0.173 0.088 0.248 0.143 0.077 0.053 0.14 0.119 0.191 0.195s0.077 0.168 0.077 0.281c0 0.092-0.016 0.175-0.049 0.247-0.032 0.072-0.080 0.136-0.144 0.189-0.063 0.052-0.14 0.095-0.229 0.121-0.089 0.029-0.192 0.043-0.305 0.043-0.152 0-0.279-0.012-0.379-0.035s-0.177-0.049-0.232-0.079l0.085-0.227c0.047 0.027 0.116 0.051 0.208 0.076s0.195 0.037 0.308 0.037c0.067 0 0.131-0.007 0.189-0.020 0.060-0.013 0.111-0.035 0.152-0.064s0.077-0.067 0.101-0.112c0.027-0.040 0.039-0.095 0.039-0.156z"></path>
</symbol>
<symbol id="icon-logo" viewBox="0 0 42 32">
<title>logo</title>
<path d="M3.201 7.582c1.078 0 1.796-0.793 1.796-1.858s-0.718-1.858-1.796-1.858c-1.078 0-1.784 0.793-1.784 1.858s0.706 1.858 1.784 1.858zM0.079 8.82v-8.671l1.363-0.149v3.27c0.384-0.421 1.053-0.718 1.821-0.718 1.846 0 3.072 1.239 3.072 3.171s-1.226 3.172-3.072 3.172c-0.818 0-1.425-0.335-1.821-0.719v0.644h-1.363z"></path>
<path d="M7.048 2.627h1.363v0.644c0.297-0.397 0.731-0.718 1.598-0.718v1.313h-0.124c-0.868 0-1.474 0.62-1.474 1.536v3.419h-1.363v-6.194z"></path>
<path d="M10.434 8.82h1.363v-6.194h-1.363v6.194zM11.115 0.075c0.508 0 0.917 0.409 0.917 0.929s-0.409 0.929-0.917 0.929c-0.507 0-0.916-0.408-0.916-0.929s0.409-0.929 0.916-0.929z"></path>
<path d="M15.125 6.281c0.681 0 1.19-0.484 1.19-1.214 0-0.743-0.508-1.226-1.19-1.226-0.694 0-1.202 0.483-1.202 1.226 0 0.731 0.508 1.214 1.202 1.214zM15.051 2.552c0.483 0 0.929 0.111 1.264 0.359v-0.285h1.362v2.44c0 0.718-0.284 1.363-0.83 1.809 0.743 0.521 1.177 1.338 1.177 2.255 0 1.735-1.275 2.861-2.899 2.861-1.524 0-2.627-0.966-2.874-2.366h1.412c0.185 0.607 0.632 1.078 1.462 1.078 0.917 0 1.512-0.644 1.512-1.573s-0.595-1.561-1.512-1.561c-0.595 0-1.115 0.347-1.35 0.818l-0.991-0.979c0.149-0.198 0.334-0.385 0.607-0.533-0.533-0.458-0.83-1.090-0.83-1.809 0-1.399 1.028-2.515 2.49-2.515z"></path>
<path d="M18.698 0.149l1.363-0.149v3.333c0.371-0.446 0.966-0.78 1.771-0.78 1.475 0 2.379 0.904 2.379 2.552v3.717h-1.363v-3.419c0-0.966-0.409-1.561-1.35-1.561-0.879 0-1.437 0.657-1.437 1.561v3.419h-1.363v-8.671z"></path>
<path d="M25.715 0.149l1.363-0.149v2.627h1.858v1.288h-1.858v4.906h-1.363v-4.906h-1.251v-1.288h1.251z"></path>
<path d="M32.132 7.582c1.065 0 1.784-0.78 1.784-1.858s-0.719-1.858-1.784-1.858c-1.065 0-1.784 0.78-1.784 1.858s0.719 1.858 1.784 1.858zM32.132 2.553c1.833 0 3.172 1.363 3.172 3.171s-1.338 3.172-3.172 3.172c-1.834 0-3.172-1.363-3.172-3.172s1.338-3.171 3.172-3.171z"></path>
<path d="M35.989 2.627h1.363v0.706c0.284-0.372 0.842-0.78 1.697-0.78 1.536 0 2.378 0.904 2.378 2.552v3.717h-1.363v-3.419c0-1.090-0.458-1.56-1.35-1.56s-1.363 0.644-1.363 1.56v3.419h-1.363v-6.194z"></path>
<path d="M3.171 17.413c1.053 0 1.796-0.768 1.796-1.883h1.363c0 1.808-1.363 3.171-3.159 3.171-1.821 0-3.172-1.351-3.172-3.171 0-1.822 1.351-3.172 3.172-3.172 0.966 0 1.697 0.359 2.267 0.941l-1.004 0.904c-0.31-0.334-0.718-0.557-1.263-0.557-1.065 0-1.784 0.768-1.784 1.883s0.719 1.883 1.784 1.883z"></path>
<path d="M9.776 17.388c1.065 0 1.784-0.78 1.784-1.858s-0.719-1.858-1.784-1.858c-1.065 0-1.784 0.78-1.784 1.858s0.719 1.858 1.784 1.858zM9.776 12.359c1.833 0 3.172 1.363 3.172 3.171s-1.338 3.172-3.172 3.172c-1.834 0-3.172-1.363-3.172-3.172s1.338-3.171 3.172-3.171z"></path>
<path d="M13.633 12.433h1.363v0.706c0.334-0.459 0.929-0.78 1.61-0.78 0.756 0 1.288 0.31 1.623 0.855 0.471-0.496 0.979-0.855 1.87-0.855 1.264 0 2.032 0.682 2.032 2.205v4.063h-1.363v-3.717c0-0.805-0.372-1.263-1.103-1.263-0.631 0-1.102 0.458-1.102 1.263v3.717h-1.363v-3.717c0-0.805-0.384-1.263-1.102-1.263-0.632 0-1.102 0.458-1.102 1.263v3.717h-1.363v-6.194z"></path>
<path d="M24.252 14.787h3.295c-0.198-0.645-0.867-1.165-1.647-1.165s-1.449 0.52-1.647 1.165zM24.19 16.001c0.149 0.78 0.855 1.412 1.747 1.412 0.632 0 1.14-0.199 1.4-0.595h1.622c-0.421 1.127-1.622 1.883-3.022 1.883-1.797 0-3.183-1.412-3.183-3.172s1.387-3.171 3.146-3.171 3.146 1.412 3.146 3.171c0 0.161-0.012 0.322-0.037 0.471h-4.819z"></path>
<path d="M32.503 13.672c-1.078 0-1.796 0.793-1.796 1.859 0 1.065 0.718 1.858 1.796 1.858s1.784-0.793 1.784-1.858c0-1.066-0.706-1.859-1.784-1.859zM34.262 18.627v-0.644c-0.396 0.384-1.003 0.718-1.821 0.718-1.846 0-3.072-1.239-3.072-3.171s1.226-3.172 3.072-3.172c0.768 0 1.437 0.297 1.821 0.718v-3.122l1.363-0.149v8.821h-1.363z"></path>
<path d="M37.33 12.433l1.537 3.605 1.536-3.605h1.412l-2.267 5.104v4.187l-1.363 0.149v-4.336l-2.267-5.104z"></path>
<path d="M5.506 25.894c0.681 0 1.19-0.484 1.19-1.214 0-0.743-0.508-1.226-1.19-1.226-0.694 0-1.202 0.483-1.202 1.226 0 0.731 0.508 1.214 1.202 1.214zM5.432 22.165c0.483 0 0.929 0.111 1.264 0.359v-0.285h1.362v2.44c0 0.718-0.284 1.363-0.83 1.809 0.743 0.521 1.177 1.338 1.177 2.255 0 1.735-1.275 2.861-2.899 2.861-1.524 0-2.627-0.966-2.874-2.366h1.412c0.185 0.607 0.632 1.078 1.462 1.078 0.917 0 1.512-0.644 1.512-1.573s-0.595-1.561-1.512-1.561c-0.595 0-1.115 0.347-1.35 0.818l-0.991-0.979c0.149-0.198 0.334-0.385 0.607-0.533-0.533-0.458-0.83-1.090-0.83-1.809 0-1.399 1.028-2.515 2.49-2.515z"></path>
<path d="M11.774 23.478c-1.028 0-1.821 0.842-1.821 1.859 0 1.015 0.793 1.858 1.821 1.858 1.003 0 1.772-0.842 1.772-1.858s-0.769-1.859-1.772-1.859zM14.883 22.24v6.194h-1.387v-0.644c-0.26 0.334-0.941 0.718-1.771 0.718-1.771 0-3.109-1.314-3.109-3.171 0-1.859 1.338-3.172 3.109-3.172 0.818 0 1.511 0.384 1.771 0.718v-0.644h1.387z"></path>
<path d="M15.972 22.239h1.363v0.644c0.297-0.397 0.731-0.718 1.598-0.718v1.313h-0.124c-0.868 0-1.474 0.62-1.474 1.536v3.419h-1.363v-6.194z"></path>
<path d="M22.072 23.478c-1.078 0-1.796 0.793-1.796 1.859 0 1.065 0.718 1.858 1.796 1.858s1.784-0.793 1.784-1.858c0-1.066-0.706-1.859-1.784-1.859zM23.831 28.434v-0.644c-0.396 0.384-1.003 0.718-1.821 0.718-1.846 0-3.072-1.239-3.072-3.171s1.226-3.172 3.072-3.172c0.768 0 1.437 0.297 1.821 0.718v-3.122l1.363-0.149v8.821h-1.363z"></path>
<path d="M27.379 24.593h3.295c-0.198-0.645-0.867-1.165-1.647-1.165s-1.449 0.52-1.647 1.165zM27.317 25.808c0.149 0.78 0.855 1.412 1.747 1.412 0.632 0 1.14-0.199 1.4-0.595h1.622c-0.421 1.127-1.622 1.883-3.022 1.883-1.797 0-3.183-1.412-3.183-3.172s1.387-3.171 3.146-3.171 3.146 1.412 3.146 3.171c0 0.161-0.012 0.322-0.037 0.471h-4.819z"></path>
<path d="M32.864 22.239h1.363v0.706c0.284-0.372 0.842-0.78 1.697-0.78 1.536 0 2.378 0.904 2.378 2.552v3.717h-1.363v-3.419c0-1.090-0.458-1.56-1.35-1.56s-1.363 0.644-1.363 1.56v3.419h-1.363v-6.194z"></path>
</symbol>
</defs>
</svg>
