<svg aria-hidden="true" style="position: absolute; width: 0; height: 0; overflow: hidden;" version="1.1" xmlns="http://www.w3.org/2000/svg" xmlns:xlink="http://www.w3.org/1999/xlink">
<defs>
<symbol id="icon-logo" viewBox="0 0 42 32">
<title>logo</title>
<path d="M3.201 7.582c1.078 0 1.796-0.793 1.796-1.858s-0.718-1.858-1.796-1.858c-1.078 0-1.784 0.793-1.784 1.858s0.706 1.858 1.784 1.858zM0.079 8.82v-8.671l1.363-0.149v3.27c0.384-0.421 1.053-0.718 1.821-0.718 1.846 0 3.072 1.239 3.072 3.171s-1.226 3.172-3.072 3.172c-0.818 0-1.425-0.335-1.821-0.719v0.644h-1.363z"></path>
<path d="M7.048 2.627h1.363v0.644c0.297-0.397 0.731-0.718 1.598-0.718v1.313h-0.124c-0.868 0-1.474 0.62-1.474 1.536v3.419h-1.363v-6.194z"></path>
<path d="M10.434 8.82h1.363v-6.194h-1.363v6.194zM11.115 0.075c0.508 0 0.917 0.409 0.917 0.929s-0.409 0.929-0.917 0.929c-0.507 0-0.916-0.408-0.916-0.929s0.409-0.929 0.916-0.929z"></path>
<path d="M15.125 6.281c0.681 0 1.19-0.484 1.19-1.214 0-0.743-0.508-1.226-1.19-1.226-0.694 0-1.202 0.483-1.202 1.226 0 0.731 0.508 1.214 1.202 1.214zM15.051 2.552c0.483 0 0.929 0.111 1.264 0.359v-0.285h1.362v2.44c0 0.718-0.284 1.363-0.83 1.809 0.743 0.521 1.177 1.338 1.177 2.255 0 1.735-1.275 2.861-2.899 2.861-1.524 0-2.627-0.966-2.874-2.366h1.412c0.185 0.607 0.632 1.078 1.462 1.078 0.917 0 1.512-0.644 1.512-1.573s-0.595-1.561-1.512-1.561c-0.595 0-1.115 0.347-1.35 0.818l-0.991-0.979c0.149-0.198 0.334-0.385 0.607-0.533-0.533-0.458-0.83-1.090-0.83-1.809 0-1.399 1.028-2.515 2.49-2.515z"></path>
<path d="M18.698 0.149l1.363-0.149v3.333c0.371-0.446 0.966-0.78 1.771-0.78 1.475 0 2.379 0.904 2.379 2.552v3.717h-1.363v-3.419c0-0.966-0.409-1.561-1.35-1.561-0.879 0-1.437 0.657-1.437 1.561v3.419h-1.363v-8.671z"></path>
<path d="M25.715 0.149l1.363-0.149v2.627h1.858v1.288h-1.858v4.906h-1.363v-4.906h-1.251v-1.288h1.251z"></path>
<path d="M32.132 7.582c1.065 0 1.784-0.78 1.784-1.858s-0.719-1.858-1.784-1.858c-1.065 0-1.784 0.78-1.784 1.858s0.719 1.858 1.784 1.858zM32.132 2.553c1.833 0 3.172 1.363 3.172 3.171s-1.338 3.172-3.172 3.172c-1.834 0-3.172-1.363-3.172-3.172s1.338-3.171 3.172-3.171z"></path>
<path d="M35.989 2.627h1.363v0.706c0.284-0.372 0.842-0.78 1.697-0.78 1.536 0 2.378 0.904 2.378 2.552v3.717h-1.363v-3.419c0-1.090-0.458-1.56-1.35-1.56s-1.363 0.644-1.363 1.56v3.419h-1.363v-6.194z"></path>
<path d="M3.171 17.413c1.053 0 1.796-0.768 1.796-1.883h1.363c0 1.808-1.363 3.171-3.159 3.171-1.821 0-3.172-1.351-3.172-3.171 0-1.822 1.351-3.172 3.172-3.172 0.966 0 1.697 0.359 2.267 0.941l-1.004 0.904c-0.31-0.334-0.718-0.557-1.263-0.557-1.065 0-1.784 0.768-1.784 1.883s0.719 1.883 1.784 1.883z"></path>
<path d="M9.776 17.388c1.065 0 1.784-0.78 1.784-1.858s-0.719-1.858-1.784-1.858c-1.065 0-1.784 0.78-1.784 1.858s0.719 1.858 1.784 1.858zM9.776 12.359c1.833 0 3.172 1.363 3.172 3.171s-1.338 3.172-3.172 3.172c-1.834 0-3.172-1.363-3.172-3.172s1.338-3.171 3.172-3.171z"></path>
<path d="M13.633 12.433h1.363v0.706c0.334-0.459 0.929-0.78 1.61-0.78 0.756 0 1.288 0.31 1.623 0.855 0.471-0.496 0.979-0.855 1.87-0.855 1.264 0 2.032 0.682 2.032 2.205v4.063h-1.363v-3.717c0-0.805-0.372-1.263-1.103-1.263-0.631 0-1.102 0.458-1.102 1.263v3.717h-1.363v-3.717c0-0.805-0.384-1.263-1.102-1.263-0.632 0-1.102 0.458-1.102 1.263v3.717h-1.363v-6.194z"></path>
<path d="M24.252 14.787h3.295c-0.198-0.645-0.867-1.165-1.647-1.165s-1.449 0.52-1.647 1.165zM24.19 16.001c0.149 0.78 0.855 1.412 1.747 1.412 0.632 0 1.14-0.199 1.4-0.595h1.622c-0.421 1.127-1.622 1.883-3.022 1.883-1.797 0-3.183-1.412-3.183-3.172s1.387-3.171 3.146-3.171 3.146 1.412 3.146 3.171c0 0.161-0.012 0.322-0.037 0.471h-4.819z"></path>
<path d="M32.503 13.672c-1.078 0-1.796 0.793-1.796 1.859 0 1.065 0.718 1.858 1.796 1.858s1.784-0.793 1.784-1.858c0-1.066-0.706-1.859-1.784-1.859zM34.262 18.627v-0.644c-0.396 0.384-1.003 0.718-1.821 0.718-1.846 0-3.072-1.239-3.072-3.171s1.226-3.172 3.072-3.172c0.768 0 1.437 0.297 1.821 0.718v-3.122l1.363-0.149v8.821h-1.363z"></path>
<path d="M37.33 12.433l1.537 3.605 1.536-3.605h1.412l-2.267 5.104v4.187l-1.363 0.149v-4.336l-2.267-5.104z"></path>
<path d="M5.506 25.894c0.681 0 1.19-0.484 1.19-1.214 0-0.743-0.508-1.226-1.19-1.226-0.694 0-1.202 0.483-1.202 1.226 0 0.731 0.508 1.214 1.202 1.214zM5.432 22.165c0.483 0 0.929 0.111 1.264 0.359v-0.285h1.362v2.44c0 0.718-0.284 1.363-0.83 1.809 0.743 0.521 1.177 1.338 1.177 2.255 0 1.735-1.275 2.861-2.899 2.861-1.524 0-2.627-0.966-2.874-2.366h1.412c0.185 0.607 0.632 1.078 1.462 1.078 0.917 0 1.512-0.644 1.512-1.573s-0.595-1.561-1.512-1.561c-0.595 0-1.115 0.347-1.35 0.818l-0.991-0.979c0.149-0.198 0.334-0.385 0.607-0.533-0.533-0.458-0.83-1.090-0.83-1.809 0-1.399 1.028-2.515 2.49-2.515z"></path>
<path d="M11.774 23.478c-1.028 0-1.821 0.842-1.821 1.859 0 1.015 0.793 1.858 1.821 1.858 1.003 0 1.772-0.842 1.772-1.858s-0.769-1.859-1.772-1.859zM14.883 22.24v6.194h-1.387v-0.644c-0.26 0.334-0.941 0.718-1.771 0.718-1.771 0-3.109-1.314-3.109-3.171 0-1.859 1.338-3.172 3.109-3.172 0.818 0 1.511 0.384 1.771 0.718v-0.644h1.387z"></path>
<path d="M15.972 22.239h1.363v0.644c0.297-0.397 0.731-0.718 1.598-0.718v1.313h-0.124c-0.868 0-1.474 0.62-1.474 1.536v3.419h-1.363v-6.194z"></path>
<path d="M22.072 23.478c-1.078 0-1.796 0.793-1.796 1.859 0 1.065 0.718 1.858 1.796 1.858s1.784-0.793 1.784-1.858c0-1.066-0.706-1.859-1.784-1.859zM23.831 28.434v-0.644c-0.396 0.384-1.003 0.718-1.821 0.718-1.846 0-3.072-1.239-3.072-3.171s1.226-3.172 3.072-3.172c0.768 0 1.437 0.297 1.821 0.718v-3.122l1.363-0.149v8.821h-1.363z"></path>
<path d="M27.379 24.593h3.295c-0.198-0.645-0.867-1.165-1.647-1.165s-1.449 0.52-1.647 1.165zM27.317 25.808c0.149 0.78 0.855 1.412 1.747 1.412 0.632 0 1.14-0.199 1.4-0.595h1.622c-0.421 1.127-1.622 1.883-3.022 1.883-1.797 0-3.183-1.412-3.183-3.172s1.387-3.171 3.146-3.171 3.146 1.412 3.146 3.171c0 0.161-0.012 0.322-0.037 0.471h-4.819z"></path>
<path d="M32.864 22.239h1.363v0.706c0.284-0.372 0.842-0.78 1.697-0.78 1.536 0 2.378 0.904 2.378 2.552v3.717h-1.363v-3.419c0-1.090-0.458-1.56-1.35-1.56s-1.363 0.644-1.363 1.56v3.419h-1.363v-6.194z"></path>
</symbol>
<symbol id="icon-facebook" viewBox="0 0 24 24">
<title>facebook</title>
<path d="M18 7c0.6 0 1-0.4 1-1v-4c0-0.6-0.4-1-1-1h-3c-3.3 0-6 2.7-6 6v2h-2c-0.6 0-1 0.4-1 1v4c0 0.6 0.4 1 1 1h2v7c0 0.6 0.4 1 1 1h4c0.6 0 1-0.4 1-1v-7h2c0.5 0 0.9-0.3 1-0.8l1-4c0.1-0.3 0-0.6-0.2-0.9s-0.5-0.3-0.8-0.3h-3v-2h3zM14 11h2.7l-0.5 2h-2.2c-0.6 0-1 0.4-1 1v7h-2v-7c0-0.6-0.4-1-1-1h-2v-2h2c0.6 0 1-0.4 1-1v-3c0-2.2 1.8-4 4-4h2v2h-2c-1.1 0-2 0.9-2 2v3c0 0.6 0.4 1 1 1z"></path>
</symbol>
<symbol id="icon-instagram" viewBox="0 0 24 24">
<title>instagram</title>
<path d="M17 1h-10c-3.3 0-6 2.7-6 6v10c0 3.3 2.7 6 6 6h10c3.3 0 6-2.7 6-6v-10c0-3.3-2.7-6-6-6zM21 17c0 2.2-1.8 4-4 4h-10c-2.2 0-4-1.8-4-4v-10c0-2.2 1.8-4 4-4h10c2.2 0 4 1.8 4 4v10z"></path>
<path d="M12.8 7c-0.5-0.1-1-0.1-1.5 0-2.7 0.4-4.6 3-4.2 5.7 0.2 1.3 0.9 2.5 2 3.3 0.9 0.6 1.9 1 3 1 0.2 0 0.5 0 0.7-0.1 1.3-0.2 2.5-0.9 3.3-2s1.1-2.4 0.9-3.7c-0.3-2.2-2-3.9-4.2-4.2zM14.5 13.7c-0.5 0.6-1.2 1.1-2 1.2-1.6 0.2-3.2-0.9-3.4-2.5-0.3-1.6 0.9-3.2 2.5-3.4 0.1 0 0.3 0 0.4 0s0.3 0 0.4 0c1.3 0.2 2.3 1.2 2.5 2.5 0.2 0.8 0 1.6-0.4 2.2z"></path>
<path d="M16.8 5.8c-0.2 0.2-0.3 0.4-0.3 0.7s0.1 0.5 0.3 0.7c0.2 0.2 0.5 0.3 0.7 0.3 0.3 0 0.5-0.1 0.7-0.3s0.3-0.5 0.3-0.7c0-0.3-0.1-0.5-0.3-0.7-0.4-0.4-1-0.4-1.4 0z"></path>
</symbol>
<symbol id="icon-twitter" viewBox="0 0 24 24">
<title>twitter</title>
<path d="M23.6 2.2c-0.3-0.2-0.8-0.2-1.1 0-0.7 0.5-1.5 0.9-2.3 1.2-2-1.8-5.1-1.9-7.2-0.1-1.3 1.1-2 2.6-2 4.2-2.9-0.2-5.5-1.7-7.2-4.1-0.2-0.3-0.5-0.4-0.9-0.4s-0.7 0.3-0.8 0.6c-0.1 0.1-1.1 2.5-1 5.4 0.1 2.5 1.1 5.7 4.8 8-1.5 0.7-3.2 1-4.9 1-0.4 0-0.9 0.3-1 0.7s0.1 0.9 0.5 1.1c2.5 1.4 5.2 2.1 7.7 2.1s4.9-0.6 7.1-1.9c4.3-2.4 6.7-7 6.7-12.5 0-0.2 0-0.3 0-0.5 1-1.1 1.7-2.4 2-3.8 0.1-0.4-0.1-0.8-0.4-1zM20.2 6c-0.2 0.2-0.3 0.6-0.3 0.9 0.1 0.2 0.1 0.4 0.1 0.6 0 4.8-2.1 8.7-5.7 10.8-2.8 1.6-6.1 2-9.4 1.2 1.3-0.4 2.5-0.9 3.6-1.7 0.4-0.2 0.5-0.5 0.5-0.9s-0.3-0.7-0.6-0.8c-5.8-2.6-5.6-7.5-5-10 2.2 2.2 5.3 3.5 8.6 3.4 0.5 0 1-0.5 1-1v-1c0-1 0.4-2 1.2-2.7 1.4-1.3 3.7-1.1 4.9 0.3 0.3 0.3 0.7 0.4 1 0.3 0.2-0.1 0.5-0.1 0.7-0.2-0.2 0.3-0.4 0.5-0.6 0.8z"></path>
</symbol>
</defs>
</svg>
